<?xml version="1.0" standalone="no"?>
<!DOCTYPE svg PUBLIC "-//W3C//DTD SVG 20010904//EN"
 "http://www.w3.org/TR/2001/REC-SVG-20010904/DTD/svg10.dtd">
<svg version="1.0" xmlns="http://www.w3.org/2000/svg"
 width="1280.000000pt" height="640.000000pt" viewBox="0 0 1280.000000 640.000000"
 preserveAspectRatio="xMidYMid meet">
<g transform="translate(0.000000,640.000000) scale(0.100000,-0.100000)"
fill="#000000" stroke="none">
<path d="M2436 4615 c-14 -13 -26 -28 -26 -32 0 -4 -14 -84 -30 -178 -35 -196
-35 -208 -14 -229 13 -14 58 -16 335 -16 199 0 328 4 339 10 11 6 24 19 29 28
12 23 71 338 71 379 0 62 -3 63 -357 63 l-320 0 -27 -25z"/>
<path d="M5175 4618 c-23 -20 -29 -42 -55 -187 -32 -177 -37 -240 -18 -259 9
-9 98 -12 338 -12 326 0 327 0 347 23 11 12 23 31 27 42 8 27 66 345 66 362 0
7 -9 22 -20 33 -19 19 -33 20 -339 20 -317 0 -320 0 -346 -22z"/>
<path d="M6348 4620 c-35 -27 -44 -55 -72 -220 -13 -80 -119 -681 -235 -1336
-116 -656 -211 -1201 -211 -1211 0 -11 8 -27 18 -36 16 -15 53 -17 316 -17
194 0 304 4 318 11 32 17 44 61 93 335 25 142 109 615 186 1049 77 435 162
915 189 1068 56 312 59 351 31 367 -12 6 -130 10 -314 10 -277 0 -296 -1 -319
-20z"/>
<path d="M7461 4613 c-24 -25 -30 -45 -54 -193 -30 -182 -33 -230 -15 -248 9
-9 98 -12 338 -12 l327 0 22 24 c18 19 29 61 56 207 19 101 32 192 29 201 -15
48 -16 48 -355 48 l-321 0 -27 -27z"/>
<path d="M11000 4633 c-20 -7 -59 -44 -71 -65 -5 -10 -61 -314 -124 -675 -63
-362 -170 -967 -236 -1345 -70 -395 -119 -698 -115 -713 10 -41 59 -47 361
-43 272 3 274 3 299 27 30 28 21 -11 105 469 38 217 72 396 75 400 4 3 11 1
17 -5 6 -6 81 -190 166 -410 85 -219 158 -407 163 -418 4 -11 18 -29 30 -40
21 -19 36 -20 369 -20 375 0 381 1 381 52 0 13 -106 256 -235 539 -129 283
-235 516 -235 519 0 2 190 219 421 482 232 263 424 484 426 491 3 7 -3 22 -12
32 -17 19 -33 20 -356 20 -336 0 -338 0 -363 -22 -14 -13 -172 -203 -351 -423
-180 -220 -333 -404 -341 -408 -10 -6 -14 -2 -14 13 0 11 59 344 130 738 72
395 130 730 130 745 0 15 -9 36 -20 47 -19 19 -33 20 -302 19 -156 0 -290 -3
-298 -6z"/>
<path d="M1291 4559 c-490 -37 -802 -233 -1001 -629 -92 -182 -141 -357 -215
-755 -80 -438 -85 -497 -55 -665 39 -220 93 -339 215 -468 158 -169 346 -250
623 -273 154 -12 351 0 507 32 133 27 181 49 200 91 18 41 99 494 91 514 -12
30 -52 33 -213 18 -93 -9 -225 -14 -323 -12 -163 3 -166 3 -220 34 -111 63
-152 185 -132 394 14 142 93 565 127 683 49 169 136 302 230 349 101 52 245
60 574 33 218 -19 223 -17 240 67 24 118 71 411 71 441 0 71 -42 92 -245 126
-137 24 -325 32 -474 20z"/>
<path d="M3865 4386 c-132 -24 -253 -46 -270 -50 -36 -9 -64 -33 -76 -64 -24
-62 -335 -1859 -345 -1992 -11 -150 23 -256 111 -349 93 -98 239 -149 470
-166 163 -11 521 29 559 63 26 24 32 43 60 207 29 163 32 208 14 222 -7 6
-112 14 -233 17 -216 7 -220 8 -245 32 l-25 24 89 532 c48 293 91 538 93 545
4 10 59 13 244 13 262 0 301 7 319 54 12 33 70 364 70 403 0 55 -9 57 -286 61
-232 4 -254 6 -254 22 0 9 16 106 35 214 34 189 36 232 11 248 -21 14 -101 6
-341 -36z"/>
<path d="M9220 3960 c-136 -13 -279 -40 -364 -68 -152 -50 -291 -166 -380
-318 -84 -144 -102 -217 -255 -1084 -112 -630 -113 -640 -96 -667 l15 -23 308
0 c307 0 309 0 330 23 28 30 27 28 142 687 144 826 143 821 229 869 40 22 54
24 190 24 166 1 198 -9 222 -65 22 -52 15 -121 -50 -483 -112 -628 -171 -976
-171 -1003 0 -16 5 -33 12 -40 9 -9 93 -12 318 -12 305 0 307 0 327 22 11 13
23 28 26 34 13 23 229 1273 236 1368 27 335 -99 564 -364 667 -147 57 -465 90
-675 69z"/>
<path d="M2344 3915 c-12 -8 -26 -27 -33 -42 -9 -25 -189 -1028 -315 -1758
-50 -291 -49 -301 14 -318 46 -13 564 -1 590 13 11 6 27 21 35 33 13 20 365
1980 365 2033 0 11 -8 28 -18 37 -16 15 -53 17 -318 17 -246 0 -303 -3 -320
-15z"/>
<path d="M5067 3900 c-30 -35 -18 23 -161 -785 -174 -984 -216 -1227 -216
-1257 0 -57 3 -58 333 -58 334 0 336 0 356 63 6 17 89 477 185 1022 150 846
173 993 163 1015 l-12 25 -312 3 -311 2 -25 -30z"/>
<path d="M7370 3917 c-8 -7 -21 -19 -27 -28 -15 -18 -363 -1970 -363 -2033 0
-55 5 -56 334 -56 l303 0 26 26 c14 14 28 38 31 52 29 135 346 1964 346 1993
0 28 -5 41 -19 49 -30 15 -612 13 -631 -3z"/>
</g>
</svg>
